<?xml version="1.0" encoding="UTF-8"?>
<svg version="1.1" xmlns="http://www.w3.org/2000/svg" width="48" height="48">
<path d="M0 0 C3.64761749 0.73531337 4.79460196 1.70112489 6.9140625 4.78515625 C7.47867187 5.86667969 8.04328125 6.94820312 8.625 8.0625 C10.76104993 12.72251016 10.76104993 12.72251016 15 15 C15.226875 14.175 15.45375 13.35 15.6875 12.5 C17.24246563 8.35342499 19.08549804 4.37341525 22 1 C24.015625 0.1640625 24.015625 0.1640625 26 0 C31.84258145 4.15130787 34.41047029 10.49606492 37 17 C37 22.61 37 28.22 37 34 C21.16 34 5.32 34 -11 34 C-11 14.40477233 -11 14.40477233 -7.1875 8.5625 C-6.83107422 7.94052734 -6.47464844 7.31855469 -6.10742188 6.67773438 C-4.31905367 3.65555618 -2.95857214 1.97238143 0 0 Z " fill="#1642B4" transform="translate(11,14)"/>
<path d="M0 0 C0 5.61 0 11.22 0 17 C-15.84 17 -31.68 17 -48 17 C-48 15.02 -48 13.04 -48 11 C-47.10917725 11.0220752 -46.21835449 11.04415039 -45.30053711 11.06689453 C-29.11695893 11.34962285 -11.68144157 0 0 0 Z " fill="#718FCE" transform="translate(48,31)"/>
<path d="M0 0 C7.92 0 15.84 0 24 0 C23.15339566 5.92623036 22.44805754 8.77417081 19.75 13.8125 C19.16734375 14.93269531 18.5846875 16.05289062 17.984375 17.20703125 C15.82788407 20.24224979 14.53742689 21.04245513 11 22 C5.56114557 17.52094341 2.52165102 11.51643151 0 5 C0 3.35 0 1.7 0 0 Z " fill="#00B6B0" transform="translate(12,0)"/>
<path d="M0 0 C3.68308916 2.24578607 4.69515144 4.68948076 6.5625 8.5625 C6.5625 9.2225 6.5625 9.8825 6.5625 10.5625 C4.9392313 11.2333712 3.31382422 11.89907029 1.6875 12.5625 C0.78257813 12.93375 -0.12234375 13.305 -1.0546875 13.6875 C-3.4375 14.5625 -3.4375 14.5625 -5.4375 14.5625 C-3.7875 18.5225 -2.1375 22.4825 -0.4375 26.5625 C-4.7275 26.2325 -9.0175 25.9025 -13.4375 25.5625 C-14.39133984 18.76639117 -12.7973107 14.51310782 -9.625 8.625 C-9.26921875 7.96234131 -8.9134375 7.29968262 -8.546875 6.61694336 C-4.37930405 -0.78602893 -4.37930405 -0.78602893 0 0 Z " fill="#0D1B5E" transform="translate(13.4375,14.4375)"/>
<path d="M0 0 C3.96479572 1.47930193 6.77588233 3.23647057 10 6 C8.60999607 10.1700118 6.86437742 10.97703732 3 13 C0.01721482 13.45545104 -2.86685418 13.38256236 -5.875 13.25 C-7.050625 13.22292969 -7.050625 13.22292969 -8.25 13.1953125 C-10.16720189 13.14855148 -12.08376715 13.07682003 -14 13 C-11.24160796 9.31999566 -8.37924618 6.50494111 -4.75 3.6875 C-3.41195313 2.64142578 -3.41195313 2.64142578 -2.046875 1.57421875 C-1.37140625 1.05472656 -0.6959375 0.53523438 0 0 Z " fill="#0F1E63" transform="translate(29,29)"/>
<path d="M0 0 C0.84069415 1.60032137 1.67231505 3.20541171 2.5 4.8125 C2.9640625 5.70582031 3.428125 6.59914063 3.90625 7.51953125 C5 10 5 10 5 13 C2.3125 15.3125 2.3125 15.3125 -1 17 C-5.53155394 16.20697806 -8.63981754 12.96946357 -12 10 C-10.33333333 8.33333333 -8.66666667 6.66666667 -7 5 C-6.113125 4.071875 -5.22625 3.14375 -4.3125 2.1875 C-2 0 -2 0 0 0 Z " fill="#00B5B0" transform="translate(42,19)"/>
<path d="M0 0 C15.84 0 31.68 0 48 0 C48 0.99 48 1.98 48 3 C32.16 3 16.32 3 0 3 C0 2.01 0 1.02 0 0 Z " fill="#1644B9" transform="translate(0,45)"/>
<path d="M0 0 C3 1 3 1 4.82421875 4.125 C5.4555924 5.41167305 6.07631155 6.70361699 6.6875 8 C7.00783203 8.65484375 7.32816406 9.3096875 7.65820312 9.984375 C10 14.81776386 10 14.81776386 10 16 C5.71 15.67 1.42 15.34 -3 15 C-3.27288764 8.99647199 -3.24013514 5.2652196 0 0 Z " fill="#0E1E63" transform="translate(3,25)"/>
<path d="M0 0 C-0.75 6.75 -0.75 6.75 -3 9 C-3 8.34 -3 7.68 -3 7 C-4.13179687 7.02320313 -5.26359375 7.04640625 -6.4296875 7.0703125 C-7.91145175 7.08906901 -9.39322312 7.10726934 -10.875 7.125 C-11.62136719 7.14175781 -12.36773437 7.15851562 -13.13671875 7.17578125 C-15.09194461 7.1933959 -17.04742021 7.10320189 -19 7 C-19.66 6.34 -20.32 5.68 -21 5 C-14.57441704 -1.11960282 -8.55836206 -0.53415575 0 0 Z " fill="#1A49B6" transform="translate(36,0)"/>
<path d="M0 0 C0.90596924 0.01571045 1.81193848 0.0314209 2.74536133 0.04760742 C3.72827148 0.05727539 4.71118164 0.06694336 5.72387695 0.0769043 C6.74803711 0.10204102 7.77219727 0.12717773 8.82739258 0.15307617 C9.8631543 0.16661133 10.89891602 0.18014648 11.96606445 0.1940918 C14.52452957 0.22946228 17.08195038 0.27882073 19.63989258 0.34057617 C19.63989258 1.33057617 19.63989258 2.32057617 19.63989258 3.34057617 C11.38989258 3.34057617 3.13989258 3.34057617 -5.36010742 3.34057617 C-2.36010742 0.34057617 -2.36010742 0.34057617 0 0 Z " fill="#0F2676" transform="translate(28.360107421875,44.659423828125)"/>
<path d="M0 0 C-0.54226981 3.79588866 -2.20127563 5.47211993 -5 8 C-7.475 7.01 -7.475 7.01 -10 6 C-9.67 5.01 -9.34 4.02 -9 3 C-2.88888889 0 -2.88888889 0 0 0 Z " fill="#0C2060" transform="translate(30,14)"/>
<path d="M0 0 C3.3 0 6.6 0 10 0 C7.24479785 2.95929119 4.53372712 5.03681826 1 7 C0.67 4.69 0.34 2.38 0 0 Z " fill="#BCD205" transform="translate(12,0)"/>
<path d="M0 0 C0.99 0.33 1.98 0.66 3 1 C3.6875 3.0625 3.6875 3.0625 4 5 C2.1875 6.0625 2.1875 6.0625 0 7 C-0.99 6.67 -1.98 6.34 -3 6 C-2.01 4.02 -1.02 2.04 0 0 Z " fill="#01B1AE" transform="translate(3,25)"/>
<path d="M0 0 C3.63 0 7.26 0 11 0 C8 3 8 3 4.3125 3.1875 C2.6728125 3.0946875 2.6728125 3.0946875 1 3 C0.67 2.01 0.34 1.02 0 0 Z " fill="#00B5B1" transform="translate(15,45)"/>
</svg>
